<svg version="1.1" id="Layer_1" xmlns="http://www.w3.org/2000/svg" x="0" y="0" viewBox="0 0 68.46 68.62" xml:space="preserve"><style>.st0{fill:#fff}</style><path class="st0" d="M43.77 36.6c-.78.59-1.74.88-2.83.88-.09 0-.66.02-2.6.39-1.41.27-2.99.68-4.7 1.24-1.68.55-3.38 1.27-5.05 2.14-1.5.78-2.68 1.69-3.53 2.7 0 .01-.01.01-.01.01.09.02.18.04.29.06 1.07.19 2.68.17 4.66-.08 2.11-.26 4.59-.85 7.39-1.74 2.47-.73 4.94-1.59 7.39-2.58 2.49-1 4.94-2.07 7.28-3.17 2.35-1.1 4.6-2.23 6.67-3.35 2.12-1.14 4.01-2.18 5.68-3.12l1.04-.58c-.63-4.03-2.03-7.8-4.03-11.17-.03.21-.06.42-.1.64-.27 1.29-.72 2.6-1.35 3.87-.58 1.19-1.21 2.28-1.87 3.26-.66.98-1.3 1.82-1.91 2.49-.82.92-1.18 1.24-1.41 1.43-.92.81-1.91.99-2.56.99-.98 0-1.89-.37-2.55-1.03-.62-.62-.99-1.45-1.05-2.38-.04-.63.07-1.62.85-2.66 1.54-1.92 1.87-2.89 1.95-3.22.09-.41.04-.57.04-.57-.04-.04-.29-.28-1.09-.43-.96-.18-2.12-.22-3.41-.12-1.38.11-2.9.38-4.52.79-1.66.42-3.3.95-4.87 1.57-1.54.6-2.98 1.3-4.29 2.09-1.23.74-2.26 1.53-3.04 2.34-1.14 1.21-1.49 1.97-1.59 2.3.29.19 1.04.53 2.83.73 1.8.2 4.29.15 7.36-.16.49-.05.99-.02 1.49-.04s.97-.03 1.41-.03c1.7 0 2.61.87 3 1.39.67.9.88 2.01.56 3.06-.25.79-.77 1.48-1.53 2.06z"/><path class="st0" d="M65.58 37.41c-2.24 1.23-4.69 2.58-7.36 4.03-2.67 1.46-5.29 2.88-7.86 4.26-2.57 1.38-4.96 2.65-7.16 3.8-2.24 1.17-4.1 2.07-5.51 2.67-3.26 1.48-6.08 2.41-8.55 2.82-1.32.22-2.54.33-3.64.33-1.04 0-2.01-.1-2.88-.29-1.99-.45-3.56-1.32-4.68-2.59-1.1-1.25-1.76-2.69-1.97-4.28-.2-1.47-.03-2.99.48-4.51.5-1.46 1.27-2.8 2.31-4 1.24-1.36 2.57-2.53 3.99-3.5-1.11-.57-2.01-1.31-2.7-2.21-1.1-1.43-1.53-3.19-1.28-5.22.22-1.8 1.13-3.81 2.79-6.16 1.35-1.98 3.13-3.84 5.26-5.5 2.04-1.59 4.27-3 6.62-4.2a45.97 45.97 0 0 1 7.24-2.94c2.46-.76 4.84-1.28 7.07-1.57 1.48-.19 2.86-.25 4.16-.2a31.373 31.373 0 0 0-17.6-5.37C16.89 2.78 2.77 16.9 2.77 34.32s14.12 31.54 31.54 31.54c16.39 0 29.86-12.51 31.39-28.5-.05.01-.08.03-.12.05z"/></svg>