<svg version="1.1" id="Layer_1" xmlns="http://www.w3.org/2000/svg" x="0" y="0" viewBox="0 0 441.22 441.22" xml:space="preserve"><style>.st0{fill:#010101}</style><path class="st0" d="M326.68 219.73c-21.05-48.91-43.62-105.34-8.07-180.86 2.26-4.82 5.53-5.86.71-8.13-4.82-2.27-8.74-3.35-11.01 1.46-39.24 83.38-16.7 135.79 5.1 186.49.93 2.16 1.85 4.31 2.77 6.47-16.51 12.72-51.86 23.31-95.58 23.31-43.76 0-79.07-10.6-95.57-23.33.92-2.15 1.83-4.29 2.76-6.45 21.8-50.69 44.33-103.1 5.1-186.49-2.28-4.82-6.63-4.45-11.45-2.16-4.82 2.27-1.09 6.13 1.18 10.95 35.55 75.53 19.15 122.57-1.88 171.48-22.81 53.05-53.76 105.17-1.59 193.86 1.8 3.06 1.72 6.07 5.03 6.07 1.66 0 .12.91 1.66 0 4.6-2.7 4.19-10.2 1.5-14.79-29.6-50.33-26.17-96.17-18.84-129.79 55.71 15.59 99.09 76.99 106.94 88.33v46.6c0 5.33-.16 9.64 5.17 9.64s5.69-4.98 5.69-10.31l.8-45.93c8.13-11.74 50.8-71.75 106.35-87.27 7.34 33.64 10.89 78.97-18.73 129.32-2.69 4.58-2.28 11.5 2.32 14.2 1.54.91-1.66 0 0 0 3.3 0 2.78-2.77 4.58-5.83 52.17-88.68 27.87-133.79 5.06-186.84zM222.15 345.56c-16.04-21.15-56.53-73.09-109.73-87.9 1.56-4.78 6.04-16.47 7.86-21.16 22.21 14.86 56.49 22.61 100.33 22.61 43.79 0 78.13-8.27 100.37-23.08 1.81 4.67 6.28 16.89 7.83 21.64-53.22 14.8-90.62 66.75-106.66 87.89z"/><ellipse transform="rotate(-80.781 220.602 200.236)" class="st0" cx="220.6" cy="200.24" rx="9.64" ry="9.64"/><path class="st0" d="M111.7 135.57l-28.93-28.93a9.639 9.639 0 0 0-13.64 0 9.639 9.639 0 0 0 0 13.64l12.47 12.47H37.38c-5.33 0-9.64 4.31-9.64 9.64 0 5.33 4.31 9.64 9.64 9.64H81.6L69.13 164.5a9.639 9.639 0 0 0 0 13.64 9.615 9.615 0 0 0 6.82 2.82c2.47 0 4.94-.94 6.82-2.82l28.93-28.93a9.639 9.639 0 0 0 0-13.64zm292.13-2.83H359.6l12.47-12.47a9.639 9.639 0 0 0 0-13.64 9.639 9.639 0 0 0-13.64 0l-28.93 28.93a9.639 9.639 0 0 0 0 13.64l28.93 28.93a9.615 9.615 0 0 0 6.82 2.82c2.47 0 4.94-.94 6.82-2.82a9.639 9.639 0 0 0 0-13.64l-12.47-12.47h44.23c5.33 0 9.64-4.31 9.64-9.64s-4.31-9.64-9.64-9.64z"/><circle cx="220.61" cy="220.61" r="212" fill="none" stroke="#010101" stroke-width="5" stroke-miterlimit="10"/></svg>