<svg version="1.1" id="Layer_1" xmlns="http://www.w3.org/2000/svg" x="0" y="0" viewBox="0 0 321.55 321.55" xml:space="preserve"><style>.st0{fill:#010101}</style><path class="st0" d="M235.25 170.19l-52.21-1.06-10.23-34.57c-.94-2.82-2.63-8.81-5.54-8.4-2.98.07-3.88 5.54-4.69 8.4l-20.81 76.91-24.34-106.89c-.65-2.9-.69-5.24-3.65-5.48-2.95-.2-3.71 4.48-4.81 7.25L84.26 166.8l-51.51 1.97c-3.74 0-7.58 1.05-7.58 4.79s4.19 3.5 7.94 3.5h52.21c2.76 0 4.62-1.13 5.64-3.7l20.81-50.8 24.69 105.83c.67 3.03.55 6.04 3.65 6.14h.2c3.02 0 4.85-5.34 5.68-8.25l21.87-77.26 6.66 26.69c.93 2.76 5.25 1.35 8.16 1.35h51.51c3.74 0 7.73.25 7.73-3.5 0-3.73-2.92-3.37-6.67-3.37z"/><path class="st0" d="M272.3 75.67c-15.87-15.87-36.68-23.81-57.47-23.81-19.46 0-38.77 7.23-54.19 21.12-15.43-13.89-34.73-21.12-54.19-21.12-20.8 0-41.6 7.93-57.47 23.81-21.05 21.05-27.83 50.7-20.96 77.6h8.97c-7.22-23.27-.75-56.4 17.64-74.8 12.79-12.79 33.06-19.76 51.15-19.76 16.51 0 33.89 9 46.21 19.76l8.78 6.7 8.39-7.17c12.33-10.75 30.18-19.29 46.68-19.29 18.09 0 39.77 10.14 52.56 22.93 26.41 26.41 24.29 76.25-2.12 102.66L160.77 288.37l-93.8-91.72-14.71-2.75 108.38 108.38L272.3 190.62c31.74-31.75 31.74-83.21 0-114.95z"/><circle cx="160.77" cy="160.77" r="150" fill="none" stroke="#010101" stroke-width="5" stroke-miterlimit="10"/></svg>