<svg version="1.1" id="Layer_1" xmlns="http://www.w3.org/2000/svg" x="0" y="0" viewBox="0 0 368.5 145.56" xml:space="preserve"><linearGradient id="SVGID_1_" gradientUnits="userSpaceOnUse" x1="88.285" y1="53.69" x2="364.362" y2="162.214"><stop offset="0" stop-color="#5a5758"/><stop offset=".365"/><stop offset=".728"/><stop offset="1" stop-color="#5d5a5b"/></linearGradient><path d="M135.03 97.72c-2.15 0-3.85-.62-5.09-1.86-1.28-1.26-1.92-3.02-1.92-5.27v-34.2c0-2.24.64-3.99 1.92-5.27 1.24-1.24 2.94-1.86 5.09-1.86h7.26c2.15 0 3.85.62 5.09 1.86 1.28 1.28 1.92 3.04 1.92 5.27v9.78h-6.86v-9.54c0-.35-.23-.52-.7-.52h-6.13c-.47 0-.7.17-.7.52v33.71c0 .37.24.55.7.55h6.13c.47 0 .7-.18.7-.55V80.8h6.86v9.79c0 2.25-.64 4.01-1.92 5.27-1.24 1.24-2.94 1.86-5.09 1.86h-7.26z" fill="url(#SVGID_1_)"/><linearGradient id="SVGID_2_" gradientUnits="userSpaceOnUse" x1="88.29" y1="53.691" x2="364.341" y2="162.206"><stop offset="0" stop-color="#5a5758"/><stop offset=".365"/><stop offset=".728"/><stop offset="1" stop-color="#5d5a5b"/></linearGradient><path d="M142.28 98.34h-7.26c-2.31 0-4.17-.69-5.53-2.04-1.39-1.37-2.1-3.29-2.1-5.71v-34.2c0-2.39.71-4.31 2.1-5.71 1.35-1.35 3.21-2.04 5.53-2.04h7.26c2.31 0 4.17.69 5.52 2.04 1.39 1.39 2.1 3.31 2.1 5.71v10.4h-8.09V56.73h-6.31v33.55h6.22c.12 0 .17-.02.17-.02l-.08-10.07h8.09v10.4c0 2.42-.71 4.34-2.1 5.71-1.35 1.35-3.21 2.04-5.52 2.04zm-7.25-48.47c-2 0-3.53.55-4.66 1.68-1.17 1.17-1.74 2.75-1.74 4.84v34.2c0 2.07.59 3.7 1.74 4.83 1.13 1.13 2.66 1.68 4.66 1.68h7.26c2 0 3.52-.55 4.65-1.68 1.16-1.14 1.74-2.76 1.74-4.84v-9.17h-5.63v8.93c0 .56-.35 1.16-1.32 1.16h-6.13c-.97 0-1.32-.6-1.32-1.16V56.63c0-.55.35-1.13 1.32-1.13h6.13c.97 0 1.32.59 1.32 1.13v8.93h5.63v-9.17c0-2.08-.57-3.67-1.74-4.84-1.13-1.13-2.66-1.68-4.65-1.68h-7.26z" fill="url(#SVGID_2_)"/><linearGradient id="SVGID_3_" gradientUnits="userSpaceOnUse" x1="93.368" y1="40.782" x2="369.422" y2="149.298"><stop offset="0" stop-color="#5a5758"/><stop offset=".365"/><stop offset=".728"/><stop offset="1" stop-color="#5d5a5b"/></linearGradient><path d="M175.44 97.72H157V49.26h18.44v6.86h-11.55v13.96h11.55v6.83h-11.55V90.9h11.55v6.82zM163.4 46.6l2.47-6.92h5.91l-4.54 6.92h-3.84z" fill="url(#SVGID_3_)"/><linearGradient id="SVGID_4_" gradientUnits="userSpaceOnUse" x1="93.398" y1="40.691" x2="369.474" y2="149.216"><stop offset="0" stop-color="#5a5758"/><stop offset=".365"/><stop offset=".728"/><stop offset="1" stop-color="#5d5a5b"/></linearGradient><path d="M176.06 98.34h-19.67v-49.7h19.67v8.09h-11.55v12.73h11.55v8.06h-11.55v12.76h11.55v8.06zm-18.44-1.23h17.21v-5.6h-11.55V76.29h11.55v-5.6h-11.55V55.5h11.55v-5.63h-17.21v47.24zm9.96-49.89h-5.04l2.91-8.15h7.48l-5.35 8.15zm-3.3-1.23h2.64l3.73-5.69h-4.34l-2.03 5.69z" fill="url(#SVGID_4_)"/><linearGradient id="SVGID_5_" gradientUnits="userSpaceOnUse" x1="95.268" y1="35.92" x2="371.351" y2="144.447"><stop offset="0" stop-color="#5a5758"/><stop offset=".365"/><stop offset=".728"/><stop offset="1" stop-color="#5d5a5b"/></linearGradient><path d="M180.2 56.39c0-2.24.64-3.99 1.92-5.27 1.24-1.24 2.94-1.86 5.09-1.86h7.32c2.13 0 3.82.62 5.06 1.86 1.28 1.28 1.92 3.04 1.92 5.27v9.78h-6.89v-9.54c0-.35-.24-.52-.7-.52h-6.13c-.47 0-.7.17-.7.52v7.71c0 1.69.66 3.07 1.98 4.15.55.45 1.29.92 2.22 1.43.33.16.75.39 1.28.67l1.34.67c2.36 1.22 4.07 2.49 5.15 3.81 1.63 1.95 2.44 4.47 2.44 7.56v7.96c0 2.25-.64 4.01-1.92 5.27-1.24 1.24-2.92 1.86-5.06 1.86h-7.35c-2.15 0-3.85-.62-5.09-1.86-1.28-1.26-1.92-3.02-1.92-5.27V80.8h6.89v9.54c0 .37.24.55.7.55h6.16c.47 0 .7-.18.7-.55v-7.71c0-1.5-.65-2.77-1.95-3.81-.55-.45-1.29-.92-2.23-1.43-.3-.16-.74-.39-1.31-.67l-1.34-.73c-2.34-1.26-4.07-2.57-5.18-3.93-1.61-2.01-2.41-4.58-2.41-7.71v-7.96z" fill="url(#SVGID_5_)"/><linearGradient id="SVGID_6_" gradientUnits="userSpaceOnUse" x1="95.275" y1="35.922" x2="371.339" y2="144.442"><stop offset="0" stop-color="#5a5758"/><stop offset=".365"/><stop offset=".728"/><stop offset="1" stop-color="#5d5a5b"/></linearGradient><path d="M194.53 98.34h-7.35c-2.31 0-4.17-.69-5.53-2.04-1.39-1.37-2.1-3.29-2.1-5.71v-10.4h8.12v10.09h6.25c.12 0 .16-.02.16-.02l-.08-7.63c0-1.32-.56-2.41-1.72-3.33-.52-.42-1.23-.88-2.14-1.37-.29-.16-.73-.38-1.29-.66l-1.36-.74c-2.4-1.29-4.2-2.67-5.36-4.08-1.69-2.12-2.55-4.85-2.55-8.1V56.4c0-2.39.71-4.31 2.1-5.71 1.35-1.35 3.21-2.04 5.52-2.04h7.32c2.29 0 4.14.69 5.49 2.04 1.4 1.39 2.1 3.31 2.1 5.71v10.4H194V56.73h-6.31v7.61c0 1.51.57 2.71 1.76 3.67.52.42 1.23.88 2.13 1.37.31.16.75.38 1.28.67l1.33.66c2.43 1.25 4.23 2.59 5.35 3.97 1.71 2.05 2.58 4.73 2.58 7.95v7.96c0 2.42-.71 4.34-2.1 5.71-1.35 1.35-3.2 2.04-5.49 2.04zm-13.75-16.92v9.17c0 2.07.59 3.7 1.74 4.83 1.13 1.13 2.66 1.68 4.66 1.68h7.35c1.98 0 3.49-.55 4.62-1.68 1.16-1.14 1.74-2.76 1.74-4.84v-7.96c0-2.93-.77-5.34-2.3-7.17-1.02-1.25-2.69-2.48-4.96-3.66l-1.33-.67c-.54-.29-.96-.51-1.28-.67-.98-.53-1.76-1.03-2.34-1.5-1.46-1.2-2.21-2.75-2.21-4.62v-7.71c0-.55.35-1.13 1.32-1.13h6.13c.97 0 1.32.59 1.32 1.13v8.93h5.66v-9.17c0-2.08-.57-3.67-1.74-4.84-1.13-1.13-2.64-1.68-4.62-1.68h-7.32c-2 0-3.53.55-4.65 1.68-1.17 1.17-1.74 2.75-1.74 4.84v7.95c0 2.97.77 5.44 2.28 7.33 1.05 1.29 2.73 2.56 4.99 3.77l1.35.73c.55.28 1 .5 1.3.67.99.54 1.75 1.03 2.33 1.5 1.44 1.15 2.18 2.59 2.18 4.29v7.71c0 .56-.35 1.16-1.32 1.16h-6.16c-.97 0-1.32-.6-1.32-1.16V81.4h-5.68z" fill="url(#SVGID_6_)"/><linearGradient id="SVGID_7_" gradientUnits="userSpaceOnUse" x1="98.256" y1="28.349" x2="374.317" y2="136.867"><stop offset="0" stop-color="#5a5758"/><stop offset=".365"/><stop offset=".728"/><stop offset="1" stop-color="#5d5a5b"/></linearGradient><path d="M204.71 97.72l6.83-48.47h9.94l6.83 48.47h-6.65l-1.68-12.1h-6.95l-1.68 12.1h-6.64zm11.79-42.86l-1.77 16.31-.73 7.65h5l-.76-7.65-1.74-16.31z" fill="url(#SVGID_7_)"/><linearGradient id="SVGID_8_" gradientUnits="userSpaceOnUse" x1="98.231" y1="28.373" x2="374.321" y2="136.903"><stop offset="0" stop-color="#5a5758"/><stop offset=".365"/><stop offset=".728"/><stop offset="1" stop-color="#5d5a5b"/></linearGradient><path d="M229.01 98.34h-7.89l-1.68-12.1h-5.88l-1.68 12.1H204l7-49.7h11l7.01 49.7zm-6.82-1.23h5.4l-6.65-47.24h-4.35l3.09 29.57h-6.35l.79-8.32 2.31-21.24h-4.36l-6.66 47.24h5.4l1.68-12.1h8.02l1.68 12.09zm-7.51-18.9h3.65l-1.83-17.59-1.15 10.62-.67 6.97z" fill="url(#SVGID_8_)"/><linearGradient id="SVGID_9_" gradientUnits="userSpaceOnUse" x1="102.146" y1="18.448" x2="378.214" y2="126.97"><stop offset="0" stop-color="#5a5758"/><stop offset=".365"/><stop offset=".728"/><stop offset="1" stop-color="#5d5a5b"/></linearGradient><path d="M248.48 49.26c2.15 0 3.86.63 5.12 1.89 1.26 1.26 1.89 3.01 1.89 5.24v7.95c0 2.74-.45 4.89-1.34 6.43-.96 1.65-2.41 2.55-4.36 2.71 1.95.16 3.4 1.07 4.36 2.71.89 1.54 1.34 3.69 1.34 6.43v15.09h-6.89V81.93c0-1.93-.33-3.24-1.01-3.93-.67-.73-1.96-1.1-3.87-1.1h-2.68v20.82h-6.89V49.26h14.33zm-7.44 20.82h2.68c1.91 0 3.2-.37 3.87-1.1.67-.69 1.01-2 1.01-3.93v-8.41c0-.35-.23-.52-.7-.52h-6.86v13.96z" fill="url(#SVGID_9_)"/><linearGradient id="SVGID_10_" gradientUnits="userSpaceOnUse" x1="102.114" y1="18.535" x2="378.179" y2="127.055"><stop offset="0" stop-color="#5a5758"/><stop offset=".365"/><stop offset=".728"/><stop offset="1" stop-color="#5d5a5b"/></linearGradient><path d="M256.1 98.34h-8.12v-16.4c0-2.19-.45-3.11-.83-3.5-.55-.6-1.73-.91-3.43-.91h-2.07v20.82h-8.12v-49.7h14.94c2.31 0 4.18.7 5.56 2.07 1.37 1.37 2.07 3.28 2.07 5.68v7.95c0 2.84-.48 5.11-1.42 6.74-.63 1.1-1.48 1.9-2.51 2.41 1.04.51 1.88 1.31 2.51 2.4.95 1.63 1.42 3.9 1.42 6.74v15.7zm-6.89-1.23h5.66V82.63c0-2.62-.42-4.68-1.26-6.12-.86-1.47-2.13-2.26-3.88-2.41v-1.22c1.75-.15 3.02-.94 3.88-2.41.83-1.44 1.26-3.5 1.26-6.12V56.4c0-2.09-.56-3.66-1.71-4.81-1.15-1.15-2.68-1.71-4.69-1.71h-13.71v47.24h5.66V76.29h3.29c2.11 0 3.53.42 4.33 1.3.78.81 1.17 2.23 1.17 4.35v15.17zm-5.49-26.42h-3.29V55.5h7.47c.97 0 1.32.59 1.32 1.13v8.41c0 2.12-.39 3.54-1.18 4.36-.79.87-2.21 1.29-4.32 1.29zm-2.06-1.23h2.07c1.7 0 2.88-.31 3.42-.9.39-.4.84-1.33.84-3.52v-8.31h-6.33v12.73z" fill="url(#SVGID_10_)"/><linearGradient id="SVGID_11_" gradientUnits="userSpaceOnUse" x1="106.524" y1="7.274" x2="382.611" y2="115.802"><stop offset="0" stop-color="#bc2324"/><stop offset=".417" stop-color="#f70404"/><stop offset=".658" stop-color="red"/><stop offset="1" stop-color="#a20d0e"/></linearGradient><path d="M284.46 49.87v41.88c0 2.07-.59 3.69-1.77 4.85-1.16 1.16-2.77 1.74-4.84 1.74h-7.59c-2.05 0-3.67-.58-4.85-1.74-1.16-1.16-1.74-2.77-1.74-4.85v-9.33h5.85v9.05c0 .89.45 1.34 1.34 1.34h6.31c.89 0 1.34-.45 1.34-1.34V55.42h-8.99v-5.55h14.94z" fill="url(#SVGID_11_)"/><linearGradient id="SVGID_12_" gradientUnits="userSpaceOnUse" x1="109.235" y1=".442" x2="385.292" y2="108.959"><stop offset="0" stop-color="#bc2324"/><stop offset=".417" stop-color="#f70404"/><stop offset=".658" stop-color="red"/><stop offset="1" stop-color="#a20d0e"/></linearGradient><path d="M288.64 98.34l6.89-48.47h9.08l6.89 48.47h-5.61l-1.74-12.47h-8.17l-1.74 12.47h-5.6zm14.72-17.99l-.88-6.25-2.26-18.69h-.3l-2.29 18.69-.85 6.25h6.58z" fill="url(#SVGID_12_)"/><linearGradient id="SVGID_13_" gradientUnits="userSpaceOnUse" x1="112.892" y1="-8.915" x2="388.952" y2="99.603"><stop offset="0" stop-color="#bc2324"/><stop offset=".417" stop-color="#f70404"/><stop offset=".658" stop-color="red"/><stop offset="1" stop-color="#a20d0e"/></linearGradient><path d="M330.34 49.87c2.07 0 3.69.58 4.85 1.74 1.18 1.18 1.77 2.79 1.77 4.85v8.23c0 2.66-.43 4.72-1.28 6.19-.9 1.54-2.35 2.62-4.36 3.23 2.01.61 3.46 1.69 4.36 3.23.85 1.46 1.28 3.53 1.28 6.19v14.81h-5.88V82.82c0-2.23-.42-3.78-1.25-4.63-.81-.87-2.27-1.31-4.39-1.31h-3.38v21.46h-5.88V49.87h14.16zm-8.29 21.46h3.38c2.11 0 3.58-.44 4.39-1.31.84-.85 1.25-2.4 1.25-4.63v-8.66c0-.87-.45-1.31-1.34-1.31h-7.68v15.91z" fill="url(#SVGID_13_)"/><linearGradient id="SVGID_14_" gradientUnits="userSpaceOnUse" x1="116.237" y1="-17.438" x2="392.323" y2="91.09"><stop offset="0" stop-color="#bc2324"/><stop offset=".417" stop-color="#f70404"/><stop offset=".658" stop-color="red"/><stop offset="1" stop-color="#a20d0e"/></linearGradient><path d="M341.13 98.34l6.89-48.47h9.08l6.89 48.47h-5.61l-1.74-12.47h-8.17l-1.74 12.47h-5.6zm14.72-17.99l-.88-6.25-2.25-18.69h-.31l-2.29 18.69-.85 6.25h6.58z" fill="url(#SVGID_14_)"/><linearGradient id="SVGID_15_" gradientUnits="userSpaceOnUse" x1="81.094" y1="16.759" x2="81.094" y2="125.029"><stop offset="0" stop-color="#bc2324"/><stop offset=".417" stop-color="#f70404"/><stop offset=".658" stop-color="red"/><stop offset="1" stop-color="#a20d0e"/></linearGradient><path d="M102.42 31.55L81.02 19.3a2.033 2.033 0 0 0-1.99 0c-.6.35-.98.99-.98 1.69l-.01 71.67c0 .54-.22 13.43-11.04 13.43-1.74 0-3.7-.32-5.82-.95-.18-.06-.37-.08-.56-.08-.72 0-1.4.4-1.74 1.06-.42.84-.19 1.86.55 2.43.73.56 18.04 13.71 31.97 13.71 2.7 0 5.14-.5 7.26-1.48.13-.06.36-.13.47-.22.44-.33 4.36-3.35 4.36-6.85V33.24c.02-.7-.46-1.34-1.07-1.69z" fill="url(#SVGID_15_)"/><linearGradient id="SVGID_16_" gradientUnits="userSpaceOnUse" x1="25.862" y1="15.125" x2="25.862" y2="116.058"><stop offset="0" stop-color="#bc2324"/><stop offset=".417" stop-color="#f70404"/><stop offset=".658" stop-color="red"/><stop offset="1" stop-color="#a20d0e"/></linearGradient><path d="M26.94 109.04l.26-54.93s.19-20.71 20.01-14.79c0 0-24.89-18.82-38.68-12.38 0 0-4.02 2.75-4.02 5.47v58.06l22.43 18.57z" fill="url(#SVGID_16_)"/><path d="M13.73 121.1l4.25 2.17c-2.25-1.2-4.33-2.32-6.16-3.29.59.4 1.22.79 1.91 1.12z" fill="#e60012"/><linearGradient id="SVGID_17_" gradientUnits="userSpaceOnUse" x1="4.607" y1="27.966" x2="73.509" y2="27.966"><stop offset="0" stop-color="#5a5758"/><stop offset=".365"/><stop offset=".728"/><stop offset="1" stop-color="#5d5a5b"/></linearGradient><path d="M73.12 14.33c-.13-.16-.28-.31-.46-.43-.61-.37-9.72-5.85-16.74-9.4-1.81-.96-3.35-1.71-4.42-2.12 0 0-6.71-2.09-12.62 1.56L11.26 20.11s-5.55 3.46-6.63 11.14c-.05.38.03.75 0 1.15 0 0 1.54-9.97 22.22-1.03 0 0 .07.02.19.07.56.32 1.16.62 1.83.91l.09.03c.13.05 12.2 4.51 34.98 17.71 3.06 1.77 3.3 1.69 6.74 3.79.3.18.64.27.99.27.31 0 .62-.07.9-.22.59-.32.96-.92.96-1.57V15.42c-.02-.4-.17-.78-.41-1.09z" fill="url(#SVGID_17_)"/><linearGradient id="SVGID_18_" gradientUnits="userSpaceOnUse" x1="-15.317" y1="51.024" x2="82.016" y2="138.69"><stop offset="0" stop-color="#5a5758"/><stop offset=".365"/><stop offset=".728"/><stop offset="1" stop-color="#5d5a5b"/></linearGradient><path d="M103.39 113.29s-1.54 9.93-22.22 1.02c0 0-18.85-8.11-40.83-19.28C30.49 90.02 20 84.39 10.3 78.6c-1.97-1.17-3.9-2.35-5.79-3.54v22.92c.24 5.44.59 10.83 1.09 13.33 0 0 1.48 5.36 6.22 8.66 1.82.98 3.91 2.09 6.16 3.29 14.15 7.55 34.85 18.5 38.55 19.92 0 0 6.71 2.08 12.62-1.56l27.61-16.1s5.55-3.45 6.63-11.1c.06-.37-.03-.74 0-1.13z" fill="url(#SVGID_18_)"/></svg>