<?xml version="1.0" encoding="utf-8"?>
<!-- Generator: Adobe Illustrator 23.0.1, SVG Export Plug-In . SVG Version: 6.00 Build 0)  -->
<svg version="1.1" id="Layer_1" xmlns="http://www.w3.org/2000/svg" xmlns:xlink="http://www.w3.org/1999/xlink" x="0px" y="0px"
	 viewBox="0 0 368.5 145.56" style="enable-background:new 0 0 368.5 145.56;" xml:space="preserve">
<style type="text/css">
	.st0{fill:url(#SVGID_1_);}
	.st1{fill:url(#SVGID_2_);}
	.st2{fill:url(#SVGID_3_);}
	.st3{fill:url(#SVGID_4_);}
	.st4{fill:url(#SVGID_5_);}
	.st5{fill:url(#SVGID_6_);}
	.st6{fill:url(#SVGID_7_);}
	.st7{fill:url(#SVGID_8_);}
	.st8{fill:url(#SVGID_9_);}
	.st9{fill:url(#SVGID_10_);}
	.st10{fill:url(#SVGID_11_);}
	.st11{fill:url(#SVGID_12_);}
	.st12{fill:url(#SVGID_13_);}
	.st13{fill:url(#SVGID_14_);}
	.st14{fill:url(#SVGID_15_);}
	.st15{fill:url(#SVGID_16_);}
	.st16{fill:#E60012;}
	.st17{fill:url(#SVGID_17_);}
	.st18{fill:url(#SVGID_18_);}
</style>
<g>
	<g>
		<g>
			<g>
				<linearGradient id="SVGID_1_" gradientUnits="userSpaceOnUse" x1="88.2854" y1="53.6897" x2="364.3622" y2="162.2144">
					<stop  offset="0" style="stop-color:#5A5758"/>
					<stop  offset="0.3652" style="stop-color:#000000"/>
					<stop  offset="0.7275" style="stop-color:#000000"/>
					<stop  offset="1" style="stop-color:#5D5A5B"/>
				</linearGradient>
				<path class="st0" d="M135.03,97.72c-2.15,0-3.85-0.62-5.09-1.86c-1.28-1.26-1.92-3.02-1.92-5.27v-34.2
					c0-2.24,0.64-3.99,1.92-5.27c1.24-1.24,2.94-1.86,5.09-1.86h7.26c2.15,0,3.85,0.62,5.09,1.86c1.28,1.28,1.92,3.04,1.92,5.27
					v9.78h-6.86v-9.54c0-0.35-0.23-0.52-0.7-0.52h-6.13c-0.47,0-0.7,0.17-0.7,0.52v33.71c0,0.37,0.24,0.55,0.7,0.55h6.13
					c0.47,0,0.7-0.18,0.7-0.55V80.8h6.86v9.79c0,2.25-0.64,4.01-1.92,5.27c-1.24,1.24-2.94,1.86-5.09,1.86H135.03z"/>
				<linearGradient id="SVGID_2_" gradientUnits="userSpaceOnUse" x1="88.2898" y1="53.6915" x2="364.3407" y2="162.2061">
					<stop  offset="0" style="stop-color:#5A5758"/>
					<stop  offset="0.3652" style="stop-color:#000000"/>
					<stop  offset="0.7275" style="stop-color:#000000"/>
					<stop  offset="1" style="stop-color:#5D5A5B"/>
				</linearGradient>
				<path class="st1" d="M142.28,98.34h-7.26c-2.31,0-4.17-0.69-5.53-2.04c-1.39-1.37-2.1-3.29-2.1-5.71v-34.2
					c0-2.39,0.71-4.31,2.1-5.71c1.35-1.35,3.21-2.04,5.53-2.04h7.26c2.31,0,4.17,0.69,5.52,2.04c1.39,1.39,2.1,3.31,2.1,5.71v10.4
					h-8.09V56.73c-0.02,0-0.05,0-0.09,0h-6.13c-0.03,0-0.06,0-0.09,0v33.55c0.02,0,0.05,0,0.09,0h6.13c0.12,0,0.17-0.02,0.17-0.02
					l-0.08-10.07h8.09v10.4c0,2.42-0.71,4.34-2.1,5.71C146.45,97.65,144.59,98.34,142.28,98.34z M135.03,49.87
					c-2,0-3.53,0.55-4.66,1.68c-1.17,1.17-1.74,2.75-1.74,4.84v34.2c0,2.07,0.59,3.7,1.74,4.83c1.13,1.13,2.66,1.68,4.66,1.68h7.26
					c2,0,3.52-0.55,4.65-1.68c1.16-1.14,1.74-2.76,1.74-4.84v-9.17h-5.63v8.93c0,0.56-0.35,1.16-1.32,1.16h-6.13
					c-0.97,0-1.32-0.6-1.32-1.16V56.63c0-0.55,0.35-1.13,1.32-1.13h6.13c0.97,0,1.32,0.59,1.32,1.13v8.93h5.63v-9.17
					c0-2.08-0.57-3.67-1.74-4.84c-1.13-1.13-2.66-1.68-4.65-1.68H135.03z"/>
			</g>
			<g>
				<linearGradient id="SVGID_3_" gradientUnits="userSpaceOnUse" x1="93.3675" y1="40.7821" x2="369.4216" y2="149.2979">
					<stop  offset="0" style="stop-color:#5A5758"/>
					<stop  offset="0.3652" style="stop-color:#000000"/>
					<stop  offset="0.7275" style="stop-color:#000000"/>
					<stop  offset="1" style="stop-color:#5D5A5B"/>
				</linearGradient>
				<path class="st2" d="M175.44,97.72h-18.44V49.26h18.44v6.86h-11.55v13.96h11.55v6.83h-11.55v13.99h11.55V97.72z M163.4,46.6
					l2.47-6.92h5.91l-4.54,6.92H163.4z"/>
				<linearGradient id="SVGID_4_" gradientUnits="userSpaceOnUse" x1="93.3977" y1="40.6913" x2="369.4738" y2="149.2157">
					<stop  offset="0" style="stop-color:#5A5758"/>
					<stop  offset="0.3652" style="stop-color:#000000"/>
					<stop  offset="0.7275" style="stop-color:#000000"/>
					<stop  offset="1" style="stop-color:#5D5A5B"/>
				</linearGradient>
				<path class="st3" d="M176.06,98.34h-19.67v-49.7h19.67v8.09h-11.55v12.73h11.55v8.06h-11.55v12.76h11.55V98.34z M157.62,97.11
					h17.21v-5.6h-11.55V76.29h11.55v-5.6h-11.55V55.5h11.55v-5.63h-17.21V97.11z M167.58,47.22h-5.04l2.91-8.15h7.48L167.58,47.22z
					 M164.28,45.99h2.64l3.73-5.69h-4.34L164.28,45.99z"/>
			</g>
			<g>
				<linearGradient id="SVGID_5_" gradientUnits="userSpaceOnUse" x1="95.2682" y1="35.9198" x2="371.3515" y2="144.4471">
					<stop  offset="0" style="stop-color:#5A5758"/>
					<stop  offset="0.3652" style="stop-color:#000000"/>
					<stop  offset="0.7275" style="stop-color:#000000"/>
					<stop  offset="1" style="stop-color:#5D5A5B"/>
				</linearGradient>
				<path class="st4" d="M180.2,56.39c0-2.24,0.64-3.99,1.92-5.27c1.24-1.24,2.94-1.86,5.09-1.86h7.32c2.13,0,3.82,0.62,5.06,1.86
					c1.28,1.28,1.92,3.04,1.92,5.27v9.78h-6.89v-9.54c0-0.35-0.24-0.52-0.7-0.52h-6.13c-0.47,0-0.7,0.17-0.7,0.52v7.71
					c0,1.69,0.66,3.07,1.98,4.15c0.55,0.45,1.29,0.92,2.22,1.43c0.33,0.16,0.75,0.39,1.28,0.67l1.34,0.67
					c2.36,1.22,4.07,2.49,5.15,3.81c1.63,1.95,2.44,4.47,2.44,7.56v7.96c0,2.25-0.64,4.01-1.92,5.27c-1.24,1.24-2.92,1.86-5.06,1.86
					h-7.35c-2.15,0-3.85-0.62-5.09-1.86c-1.28-1.26-1.92-3.02-1.92-5.27V80.8h6.89v9.54c0,0.37,0.24,0.55,0.7,0.55h6.16
					c0.47,0,0.7-0.18,0.7-0.55v-7.71c0-1.5-0.65-2.77-1.95-3.81c-0.55-0.45-1.29-0.92-2.23-1.43c-0.3-0.16-0.74-0.39-1.31-0.67
					l-1.34-0.73c-2.34-1.26-4.07-2.57-5.18-3.93c-1.61-2.01-2.41-4.58-2.41-7.71V56.39z"/>
				<linearGradient id="SVGID_6_" gradientUnits="userSpaceOnUse" x1="95.2746" y1="35.9224" x2="371.3389" y2="144.4422">
					<stop  offset="0" style="stop-color:#5A5758"/>
					<stop  offset="0.3652" style="stop-color:#000000"/>
					<stop  offset="0.7275" style="stop-color:#000000"/>
					<stop  offset="1" style="stop-color:#5D5A5B"/>
				</linearGradient>
				<path class="st5" d="M194.53,98.34h-7.35c-2.31,0-4.17-0.69-5.53-2.04c-1.39-1.37-2.1-3.29-2.1-5.71v-10.4h8.12v10.09
					c0.02,0,0.05,0,0.09,0h6.16c0.12,0,0.16-0.02,0.16-0.02L194,82.63c0-1.32-0.56-2.41-1.72-3.33c-0.52-0.42-1.23-0.88-2.14-1.37
					c-0.29-0.16-0.73-0.38-1.29-0.66l-1.36-0.74c-2.4-1.29-4.2-2.67-5.36-4.08c-1.69-2.12-2.55-4.85-2.55-8.1v-7.95
					c0-2.39,0.71-4.31,2.1-5.71c1.35-1.35,3.21-2.04,5.52-2.04h7.32c2.29,0,4.14,0.69,5.49,2.04c1.4,1.39,2.1,3.31,2.1,5.71v10.4
					H194V56.73c-0.02,0-0.05,0-0.09,0h-6.13c-0.03,0-0.06,0-0.09,0v7.61c0,1.51,0.57,2.71,1.76,3.67c0.52,0.42,1.23,0.88,2.13,1.37
					c0.31,0.16,0.75,0.38,1.28,0.67l1.33,0.66c2.43,1.25,4.23,2.59,5.35,3.97c1.71,2.05,2.58,4.73,2.58,7.95v7.96
					c0,2.42-0.71,4.34-2.1,5.71C198.67,97.65,196.82,98.34,194.53,98.34z M180.78,81.42v9.17c0,2.07,0.59,3.7,1.74,4.83
					c1.13,1.13,2.66,1.68,4.66,1.68h7.35c1.98,0,3.49-0.55,4.62-1.68c1.16-1.14,1.74-2.76,1.74-4.84v-7.96
					c0-2.93-0.77-5.34-2.3-7.17c-1.02-1.25-2.69-2.48-4.96-3.66l-1.33-0.67c-0.54-0.29-0.96-0.51-1.28-0.67
					c-0.98-0.53-1.76-1.03-2.34-1.5c-1.46-1.2-2.21-2.75-2.21-4.62v-7.71c0-0.55,0.35-1.13,1.32-1.13h6.13
					c0.97,0,1.32,0.59,1.32,1.13v8.93h5.66v-9.17c0-2.08-0.57-3.67-1.74-4.84c-1.13-1.13-2.64-1.68-4.62-1.68h-7.32
					c-2,0-3.53,0.55-4.65,1.68c-1.17,1.17-1.74,2.75-1.74,4.84v7.95c0,2.97,0.77,5.44,2.28,7.33c1.05,1.29,2.73,2.56,4.99,3.77
					l1.35,0.73c0.55,0.28,1,0.5,1.3,0.67c0.99,0.54,1.75,1.03,2.33,1.5c1.44,1.15,2.18,2.59,2.18,4.29v7.71
					c0,0.56-0.35,1.16-1.32,1.16h-6.16c-0.97,0-1.32-0.6-1.32-1.16v-8.93H180.78z"/>
			</g>
			<g>
				<linearGradient id="SVGID_7_" gradientUnits="userSpaceOnUse" x1="98.2558" y1="28.3485" x2="374.3171" y2="136.8671">
					<stop  offset="0" style="stop-color:#5A5758"/>
					<stop  offset="0.3652" style="stop-color:#000000"/>
					<stop  offset="0.7275" style="stop-color:#000000"/>
					<stop  offset="1" style="stop-color:#5D5A5B"/>
				</linearGradient>
				<path class="st6" d="M204.71,97.72l6.83-48.47h9.94l6.83,48.47h-6.65l-1.68-12.1h-6.95l-1.68,12.1H204.71z M216.5,54.86
					l-1.77,16.31L214,78.82h5l-0.76-7.65L216.5,54.86z"/>
				<linearGradient id="SVGID_8_" gradientUnits="userSpaceOnUse" x1="98.2314" y1="28.3731" x2="374.3209" y2="136.9028">
					<stop  offset="0" style="stop-color:#5A5758"/>
					<stop  offset="0.3652" style="stop-color:#000000"/>
					<stop  offset="0.7275" style="stop-color:#000000"/>
					<stop  offset="1" style="stop-color:#5D5A5B"/>
				</linearGradient>
				<path class="st7" d="M229.01,98.34h-7.89l-1.68-12.1h-5.88l-1.68,12.1H204l7-49.7h11L229.01,98.34z M222.19,97.11h5.4
					l-6.65-47.24h-4.35l3.09,29.57h-6.35l0.79-8.32l2.31-21.24h-4.36l-6.66,47.24h5.4l1.68-12.1h8.02L222.19,97.11z M214.68,78.21
					h3.65l-1.83-17.59l-1.15,10.62L214.68,78.21z"/>
			</g>
			<g>
				<linearGradient id="SVGID_9_" gradientUnits="userSpaceOnUse" x1="102.1458" y1="18.4483" x2="378.2142" y2="126.9697">
					<stop  offset="0" style="stop-color:#5A5758"/>
					<stop  offset="0.3652" style="stop-color:#000000"/>
					<stop  offset="0.7275" style="stop-color:#000000"/>
					<stop  offset="1" style="stop-color:#5D5A5B"/>
				</linearGradient>
				<path class="st8" d="M248.48,49.26c2.15,0,3.86,0.63,5.12,1.89c1.26,1.26,1.89,3.01,1.89,5.24v7.95c0,2.74-0.45,4.89-1.34,6.43
					c-0.96,1.65-2.41,2.55-4.36,2.71c1.95,0.16,3.4,1.07,4.36,2.71c0.89,1.54,1.34,3.69,1.34,6.43v15.09h-6.89V81.93
					c0-1.93-0.33-3.24-1.01-3.93c-0.67-0.73-1.96-1.1-3.87-1.1h-2.68v20.82h-6.89V49.26H248.48z M241.04,70.08h2.68
					c1.91,0,3.2-0.37,3.87-1.1c0.67-0.69,1.01-2,1.01-3.93v-8.41c0-0.35-0.23-0.52-0.7-0.52h-6.86V70.08z"/>
				<linearGradient id="SVGID_10_" gradientUnits="userSpaceOnUse" x1="102.1135" y1="18.5345" x2="378.1788" y2="127.0547">
					<stop  offset="0" style="stop-color:#5A5758"/>
					<stop  offset="0.3652" style="stop-color:#000000"/>
					<stop  offset="0.7275" style="stop-color:#000000"/>
					<stop  offset="1" style="stop-color:#5D5A5B"/>
				</linearGradient>
				<path class="st9" d="M256.1,98.34h-8.12v-16.4c0-2.19-0.45-3.11-0.83-3.5c-0.55-0.6-1.73-0.91-3.43-0.91h-2.07v20.82h-8.12
					v-49.7h14.94c2.31,0,4.18,0.7,5.56,2.07c1.37,1.37,2.07,3.28,2.07,5.68v7.95c0,2.84-0.48,5.11-1.42,6.74
					c-0.63,1.1-1.48,1.9-2.51,2.41c1.04,0.51,1.88,1.31,2.51,2.4c0.95,1.63,1.42,3.9,1.42,6.74V98.34z M249.21,97.11h5.66V82.63
					c0-2.62-0.42-4.68-1.26-6.12c-0.86-1.47-2.13-2.26-3.88-2.41l0-1.22c1.75-0.15,3.02-0.94,3.88-2.41
					c0.83-1.44,1.26-3.5,1.26-6.12v-7.95c0-2.09-0.56-3.66-1.71-4.81c-1.15-1.15-2.68-1.71-4.69-1.71h-13.71v47.24h5.66V76.29h3.29
					c2.11,0,3.53,0.42,4.33,1.3c0.78,0.81,1.17,2.23,1.17,4.35V97.11z M243.72,70.69h-3.29V55.5h7.47c0.97,0,1.32,0.59,1.32,1.13
					v8.41c0,2.12-0.39,3.54-1.18,4.36C247.25,70.27,245.83,70.69,243.72,70.69z M241.66,69.46h2.07c1.7,0,2.88-0.31,3.42-0.9
					c0.39-0.4,0.84-1.33,0.84-3.52v-8.31c-0.02,0-0.05,0-0.09,0h-6.24V69.46z"/>
			</g>
		</g>
		<g>
			<linearGradient id="SVGID_11_" gradientUnits="userSpaceOnUse" x1="106.5239" y1="7.2738" x2="382.6107" y2="115.8025">
				<stop  offset="0" style="stop-color:#BC2324"/>
				<stop  offset="0.417" style="stop-color:#F70404"/>
				<stop  offset="0.6579" style="stop-color:#FF0000"/>
				<stop  offset="1" style="stop-color:#A20D0E"/>
			</linearGradient>
			<path class="st10" d="M284.46,49.87v41.88c0,2.07-0.59,3.69-1.77,4.85c-1.16,1.16-2.77,1.74-4.84,1.74h-7.59
				c-2.05,0-3.67-0.58-4.85-1.74c-1.16-1.16-1.74-2.77-1.74-4.85v-9.33h5.85v9.05c0,0.89,0.45,1.34,1.34,1.34h6.31
				c0.89,0,1.34-0.45,1.34-1.34V55.42h-8.99v-5.55H284.46z"/>
			<linearGradient id="SVGID_12_" gradientUnits="userSpaceOnUse" x1="109.2349" y1="0.4418" x2="385.2922" y2="108.9588">
				<stop  offset="0" style="stop-color:#BC2324"/>
				<stop  offset="0.417" style="stop-color:#F70404"/>
				<stop  offset="0.6579" style="stop-color:#FF0000"/>
				<stop  offset="1" style="stop-color:#A20D0E"/>
			</linearGradient>
			<path class="st11" d="M288.64,98.34l6.89-48.47h9.08l6.89,48.47h-5.61l-1.74-12.47h-8.17l-1.74,12.47H288.64z M303.36,80.35
				l-0.88-6.25l-2.26-18.69h-0.3l-2.29,18.69l-0.85,6.25H303.36z"/>
			<linearGradient id="SVGID_13_" gradientUnits="userSpaceOnUse" x1="112.8919" y1="-8.9153" x2="388.9523" y2="99.603">
				<stop  offset="0" style="stop-color:#BC2324"/>
				<stop  offset="0.417" style="stop-color:#F70404"/>
				<stop  offset="0.6579" style="stop-color:#FF0000"/>
				<stop  offset="1" style="stop-color:#A20D0E"/>
			</linearGradient>
			<path class="st12" d="M330.34,49.87c2.07,0,3.69,0.58,4.85,1.74c1.18,1.18,1.77,2.79,1.77,4.85v8.23c0,2.66-0.43,4.72-1.28,6.19
				c-0.9,1.54-2.35,2.62-4.36,3.23c2.01,0.61,3.46,1.69,4.36,3.23c0.85,1.46,1.28,3.53,1.28,6.19v14.81h-5.88V82.82
				c0-2.23-0.42-3.78-1.25-4.63c-0.81-0.87-2.27-1.31-4.39-1.31h-3.38v21.46h-5.88V49.87H330.34z M322.05,71.33h3.38
				c2.11,0,3.58-0.44,4.39-1.31c0.84-0.85,1.25-2.4,1.25-4.63v-8.66c0-0.87-0.45-1.31-1.34-1.31h-7.68V71.33z"/>
			<linearGradient id="SVGID_14_" gradientUnits="userSpaceOnUse" x1="116.2371" y1="-17.4383" x2="392.3228" y2="91.09">
				<stop  offset="0" style="stop-color:#BC2324"/>
				<stop  offset="0.417" style="stop-color:#F70404"/>
				<stop  offset="0.6579" style="stop-color:#FF0000"/>
				<stop  offset="1" style="stop-color:#A20D0E"/>
			</linearGradient>
			<path class="st13" d="M341.13,98.34l6.89-48.47h9.08l6.89,48.47h-5.61l-1.74-12.47h-8.17l-1.74,12.47H341.13z M355.85,80.35
				l-0.88-6.25l-2.25-18.69h-0.31l-2.29,18.69l-0.85,6.25H355.85z"/>
		</g>
	</g>
	<g>
		<linearGradient id="SVGID_15_" gradientUnits="userSpaceOnUse" x1="81.0939" y1="16.7588" x2="81.0939" y2="125.0291">
			<stop  offset="0" style="stop-color:#BC2324"/>
			<stop  offset="0.417" style="stop-color:#F70404"/>
			<stop  offset="0.6579" style="stop-color:#FF0000"/>
			<stop  offset="1" style="stop-color:#A20D0E"/>
		</linearGradient>
		<path class="st14" d="M102.42,31.55L81.02,19.3c-0.3-0.17-0.66-0.26-1-0.26c-0.34,0-0.69,0.09-0.99,0.26
			c-0.6,0.35-0.98,0.99-0.98,1.69l-0.01,71.67c0,0.54-0.22,13.43-11.04,13.43c-1.74,0-3.7-0.32-5.82-0.95
			c-0.18-0.06-0.37-0.08-0.56-0.08c-0.72,0-1.4,0.4-1.74,1.06c-0.42,0.84-0.19,1.86,0.55,2.43c0.73,0.56,18.04,13.71,31.97,13.71
			c2.7,0,5.14-0.5,7.26-1.48c0.13-0.06,0.36-0.13,0.47-0.22c0.44-0.33,4.36-3.35,4.36-6.85V33.24
			C103.51,32.54,103.03,31.9,102.42,31.55z"/>
		<linearGradient id="SVGID_16_" gradientUnits="userSpaceOnUse" x1="25.8617" y1="15.1247" x2="25.8617" y2="116.0577">
			<stop  offset="0" style="stop-color:#BC2324"/>
			<stop  offset="0.417" style="stop-color:#F70404"/>
			<stop  offset="0.6579" style="stop-color:#FF0000"/>
			<stop  offset="1" style="stop-color:#A20D0E"/>
		</linearGradient>
		<path class="st15" d="M26.94,109.04l0.26-54.93c0,0,0.19-20.71,20.01-14.79c0,0-24.89-18.82-38.68-12.38c0,0-4.02,2.75-4.02,5.47
			v58.06L26.94,109.04z"/>
		<path class="st16" d="M13.73,121.1l4.25,2.17c-2.25-1.2-4.33-2.32-6.16-3.29C12.41,120.38,13.04,120.77,13.73,121.1z"/>
		<g>
			<linearGradient id="SVGID_17_" gradientUnits="userSpaceOnUse" x1="4.6074" y1="27.9662" x2="73.5091" y2="27.9662">
				<stop  offset="0" style="stop-color:#5A5758"/>
				<stop  offset="0.3652" style="stop-color:#000000"/>
				<stop  offset="0.7275" style="stop-color:#000000"/>
				<stop  offset="1" style="stop-color:#5D5A5B"/>
			</linearGradient>
			<path class="st17" d="M73.12,14.33c-0.13-0.16-0.28-0.31-0.46-0.43c-0.61-0.37-9.72-5.85-16.74-9.4
				c-1.81-0.96-3.35-1.71-4.42-2.12c0,0-6.71-2.09-12.62,1.56L11.26,20.11c0,0-5.55,3.46-6.63,11.14c-0.05,0.38,0.03,0.75,0,1.15
				c0,0,1.54-9.97,22.22-1.03c0,0,0.07,0.02,0.19,0.07c0.56,0.32,1.16,0.62,1.83,0.91c0.03,0.01,0.06,0.02,0.09,0.03
				c0.13,0.05,12.2,4.51,34.98,17.71c3.06,1.77,3.3,1.69,6.74,3.79c0.3,0.18,0.64,0.27,0.99,0.27c0.31,0,0.62-0.07,0.9-0.22
				c0.59-0.32,0.96-0.92,0.96-1.57V15.42C73.51,15.02,73.36,14.64,73.12,14.33z"/>
			<linearGradient id="SVGID_18_" gradientUnits="userSpaceOnUse" x1="-15.3168" y1="51.0236" x2="82.0165" y2="138.6899">
				<stop  offset="0" style="stop-color:#5A5758"/>
				<stop  offset="0.3652" style="stop-color:#000000"/>
				<stop  offset="0.7275" style="stop-color:#000000"/>
				<stop  offset="1" style="stop-color:#5D5A5B"/>
			</linearGradient>
			<path class="st18" d="M103.39,113.29c0,0-1.54,9.93-22.22,1.02c0,0-18.85-8.11-40.83-19.28C30.49,90.02,20,84.39,10.3,78.6
				c-1.97-1.17-3.9-2.35-5.79-3.54v7.24v15.68c0.24,5.44,0.59,10.83,1.09,13.33c0,0,1.48,5.36,6.22,8.66
				c1.82,0.98,3.91,2.09,6.16,3.29c14.15,7.55,34.85,18.5,38.55,19.92c0,0,6.71,2.08,12.62-1.56l27.61-16.1c0,0,5.55-3.45,6.63-11.1
				C103.45,114.05,103.36,113.68,103.39,113.29z"/>
		</g>
	</g>
</g>
</svg>
