<?xml version="1.0" encoding="utf-8"?>
<!-- Generator: Adobe Illustrator 23.0.1, SVG Export Plug-In . SVG Version: 6.00 Build 0)  -->
<svg version="1.1" id="Layer_1" xmlns="http://www.w3.org/2000/svg" xmlns:xlink="http://www.w3.org/1999/xlink" x="0px" y="0px"
	 viewBox="0 0 68.46 68.62" style="enable-background:new 0 0 68.46 68.62;" xml:space="preserve">
<style type="text/css">
	.st0{fill:#FFFFFF;}
</style>
<g>
	<path class="st0" d="M43.77,36.6c-0.78,0.59-1.74,0.88-2.83,0.88c-0.09,0-0.66,0.02-2.6,0.39c-1.41,0.27-2.99,0.68-4.7,1.24
		c-1.68,0.55-3.38,1.27-5.05,2.14c-1.5,0.78-2.68,1.69-3.53,2.7c0,0.01-0.01,0.01-0.01,0.01c0.09,0.02,0.18,0.04,0.29,0.06
		c1.07,0.19,2.68,0.17,4.66-0.08c2.11-0.26,4.59-0.85,7.39-1.74c2.47-0.73,4.94-1.59,7.39-2.58c2.49-1,4.94-2.07,7.28-3.17
		c2.35-1.1,4.6-2.23,6.67-3.35c2.12-1.14,4.01-2.18,5.68-3.12c0.36-0.2,0.7-0.39,1.04-0.58c-0.63-4.03-2.03-7.8-4.03-11.17
		c-0.03,0.21-0.06,0.42-0.1,0.64c-0.27,1.29-0.72,2.6-1.35,3.87c-0.58,1.19-1.21,2.28-1.87,3.26c-0.66,0.98-1.3,1.82-1.91,2.49
		c-0.82,0.92-1.18,1.24-1.41,1.43c-0.92,0.81-1.91,0.99-2.56,0.99c-0.98,0-1.89-0.37-2.55-1.03c-0.62-0.62-0.99-1.45-1.05-2.38
		c-0.04-0.63,0.07-1.62,0.85-2.66c1.54-1.92,1.87-2.89,1.95-3.22c0.09-0.41,0.04-0.57,0.04-0.57c-0.04-0.04-0.29-0.28-1.09-0.43
		c-0.96-0.18-2.12-0.22-3.41-0.12c-1.38,0.11-2.9,0.38-4.52,0.79c-1.66,0.42-3.3,0.95-4.87,1.57c-1.54,0.6-2.98,1.3-4.29,2.09
		c-1.23,0.74-2.26,1.53-3.04,2.34c-1.14,1.21-1.49,1.97-1.59,2.3c0.29,0.19,1.04,0.53,2.83,0.73c1.8,0.2,4.29,0.15,7.36-0.16
		c0.49-0.05,0.99-0.02,1.49-0.04c0.5-0.02,0.97-0.03,1.41-0.03c1.7,0,2.61,0.87,3,1.39c0.67,0.9,0.88,2.01,0.56,3.06
		C45.05,35.33,44.53,36.02,43.77,36.6z"/>
	<path class="st0" d="M65.58,37.41c-2.24,1.23-4.69,2.58-7.36,4.03c-2.67,1.46-5.29,2.88-7.86,4.26c-2.57,1.38-4.96,2.65-7.16,3.8
		c-2.24,1.17-4.1,2.07-5.51,2.67c-3.26,1.48-6.08,2.41-8.55,2.82c-1.32,0.22-2.54,0.33-3.64,0.33c0,0,0,0,0,0
		c-1.04,0-2.01-0.1-2.88-0.29c-1.99-0.45-3.56-1.32-4.68-2.59c-1.1-1.25-1.76-2.69-1.97-4.28c-0.2-1.47-0.03-2.99,0.48-4.51
		c0.5-1.46,1.27-2.8,2.31-4c1.24-1.36,2.57-2.53,3.99-3.5c-1.11-0.57-2.01-1.31-2.7-2.21c-1.1-1.43-1.53-3.19-1.28-5.22
		c0.22-1.8,1.13-3.81,2.79-6.16c1.35-1.98,3.13-3.84,5.26-5.5c2.04-1.59,4.27-3,6.62-4.2c2.34-1.19,4.78-2.18,7.24-2.94
		c2.46-0.76,4.84-1.28,7.07-1.57c1.48-0.19,2.86-0.25,4.16-0.2c-5.03-3.39-11.08-5.37-17.6-5.37c-17.42,0-31.54,14.12-31.54,31.54
		c0,17.42,14.12,31.54,31.54,31.54c16.39,0,29.86-12.51,31.39-28.5C65.65,37.37,65.62,37.39,65.58,37.41z"/>
</g>
</svg>
