<?xml version="1.0" encoding="utf-8"?>
<!-- Generator: Adobe Illustrator 23.0.1, SVG Export Plug-In . SVG Version: 6.00 Build 0)  -->
<svg version="1.1" id="Layer_1" xmlns="http://www.w3.org/2000/svg" xmlns:xlink="http://www.w3.org/1999/xlink" x="0px" y="0px"
	 viewBox="0 0 323.88 321.57" style="enable-background:new 0 0 323.88 321.57;" xml:space="preserve">
<style type="text/css">
	.st0{fill:#010101;}
	.st1{fill:none;stroke:#010101;stroke-width:5;stroke-miterlimit:10;}
</style>
<g>
	<g>
		<g>
			<path class="st0" d="M277.92,73.88c-8.85-10.89-19.85-17.19-38.26-20.87c-10.84-2.15-16.05,2.69-19.26,14.45
				c-0.73,13.15-0.27,20.33,13.11,27.56c6.86,2.37,10.74,1.4,15.04-0.43c0.99,3.85,2.21,9.26,3.41,14.55
				c1.16,5.15,2.34,10.39,3.53,15.19c-9.65-3.72-23.89-7.42-36.45,2.33c-2,1.55-3.73,3.01-5.31,4.34c-6.79,5.72-8.2,6.91-18.71,3.96
				c-1.74-0.49-3.28-1.26-4.92-1.92c10.47-11.12,18.27-26.57,18.27-40.75c0-27.61-20.74-50.08-46.23-50.08s-46.23,22.47-46.23,50.08
				c0,14.18,7.8,29.63,18.27,40.74c-1.64,0.66-3.18,1.43-4.93,1.92c-10.49,2.98-11.92,1.77-18.7-3.96
				c-1.58-1.33-3.31-2.79-5.31-4.35c-12.58-9.73-26.79-6.04-36.45-2.33c1.15-4.63,2.35-9.94,3.52-15.15
				c1.19-5.31,2.41-10.74,3.42-14.6c4.29,1.83,10.47-2.29,17.31-4.65c12.84-7.88,18.16-12.36,15.1-23.58
				c-3.2-11.75-13.31-16.01-24.2-13.88c-18.4,3.68-31.92,8.66-40.77,19.55c-7.74,9.53-33.92,71.44-30.92,85.12
				c2.46,11.22,13.15,12.62,40.13,27.69l6.62,3.21c6.81,3.81,9.67,6.01,16.25,6.42c10.54,0.65,13.78,5.67,16.18,11.73
				c10.51,26.61,21.87,66.33,21.94,66.72c0.71,3.68,6.34,33.25,9.96,33.25c0.48,0-0.5,0.1,0,0c4.18-0.81-1.93-32.28-2.74-36.46
				c-0.32-1.65-8.75-40-19.8-67.95c-6.21-15.72-15.13-17.79-25.26-18.41c-5.42-0.34-10.54-0.65-14.28-2.75l-4.91-2.74
				c-18.63-10.4-35.77-20.12-36.68-24.12c-0.3-8.49,20.11-68.02,28.42-78.25c6.52-8.03,24.2-12.08,38.99-15.05
				c3.99-0.82,14.05,7.22,13.04,9.83c2.81,2.41-2.41,10.43-12.18,11.55c-1.61,0.57-4.43-0.65-6.93-1.73
				c-3.57-1.55-2.04-0.49-6.7,1.55c-1.91,0.82-3.13,4.91-4.55,8.83c-1.43,3.91-2.53,9.48-4.55,18.46
				c-1.86,8.27-2.94,15.78-4.55,20.6c-0.69,2.09-3.31,3.46,1.34,7.76c6.96,1.61,3.07-0.66,9.1-3.21c9.89-4.14,22.69-6.32,29.83-0.8
				c1.81,1.41,4.18,4.42,5.62,5.62c8.96,7.57,10.6,6.92,28.09,2.01c5.27-1.48,8.32,2.59,13.05,2.93c4.8,2.64,9.71,4.33,14.44,4.33
				c4.74,0,9.65-1.7,14.44-4.33c4.32,2.32,12.18-3.61,17.45-2.13c17.52,4.92,15.12,1.15,24.08-6.42c1.43-1.2,7.01-5.82,8.83-7.22
				c7.13-5.54,16.46,1.07,26.35,5.22c5.35,1.34,4.01,1.83,9.63,0.54c4.65-4.29,2.03-5.94,1.34-8.03c-1.6-4.84-3.49-10.43-5.35-18.73
				c-2.02-8.95-2.33-15.89-3.75-19.8c-1.43-3.92-1.84-4.52-3.75-5.35c-4.66-2-3.47,0.02-8.23,0.2c-2.48,1.07-7.81,2.18-9.43,1.61
				c-7.5-2.62-6.46-12.55-6.22-13.44c0.28-1.02,6.58-9.96,10.63-7.83c14.78,2.96,31.05,7.96,37.59,15.98
				c8.31,10.24,27.45,68.07,27.22,76.11c0.15-0.66-1.44,4.55-35.08,23.33l-4.89,2.73c-3.74,2.09-8.86,2.41-14.27,2.75
				c-10.13,0.63-19.19,2.69-25.41,18.41c-11.05,27.95-18.41,66.04-18.73,67.68c-0.81,4.18-6.23,35.48-2.06,36.29
				c0.48,0.09-0.48,0,0,0c3.62,0,7.63-32.74,8.34-36.42c0.73-3.7,11.08-35.62,21.95-63.09c2.4-6.07,5.65-11.84,16.18-12.48
				c6.57-0.41,11.65-3.95,18.46-7.76l9.36-6.15c27-15.07,32.32-10.24,34.78-21.47C314.62,144.66,285.67,83.41,277.92,73.88z
				 M162.15,139.69c-10.27,0-37.92-27.4-37.92-46.55s20.69-43.74,37.71-43.74c17.02,0,37.73,24.59,37.73,43.74
				S172.43,139.69,162.15,139.69z"/>
		</g>
	</g>
	<circle class="st1" cx="162.15" cy="161.36" r="149.88"/>
</g>
</svg>
