<?xml version="1.0" encoding="utf-8"?>
<!-- Generator: Adobe Illustrator 23.0.1, SVG Export Plug-In . SVG Version: 6.00 Build 0)  -->
<svg version="1.1" id="Layer_1" xmlns="http://www.w3.org/2000/svg" xmlns:xlink="http://www.w3.org/1999/xlink" x="0px" y="0px"
	 viewBox="0 0 441.22 441.22" style="enable-background:new 0 0 441.22 441.22;" xml:space="preserve">
<style type="text/css">
	.st0{fill:#010101;}
	.st1{fill:none;stroke:#010101;stroke-width:5;stroke-miterlimit:10;}
</style>
<g>
	<g>
		<g>
			<g>
				<path class="st0" d="M326.68,219.73c-21.05-48.91-43.62-105.34-8.07-180.86c2.26-4.82,5.53-5.86,0.71-8.13
					c-4.82-2.27-8.74-3.35-11.01,1.46c-39.24,83.38-16.7,135.79,5.1,186.49c0.93,2.16,1.85,4.31,2.77,6.47
					c-16.51,12.72-51.86,23.31-95.58,23.31c-43.76,0-79.07-10.6-95.57-23.33c0.92-2.15,1.83-4.29,2.76-6.45
					c21.8-50.69,44.33-103.1,5.1-186.49c-2.28-4.82-6.63-4.45-11.45-2.16c-4.82,2.27-1.09,6.13,1.18,10.95
					c35.55,75.53,19.15,122.57-1.88,171.48c-22.81,53.05-53.76,105.17-1.59,193.86c1.8,3.06,1.72,6.07,5.03,6.07
					c1.66,0,0.12,0.91,1.66,0c4.6-2.7,4.19-10.2,1.5-14.79c-29.6-50.33-26.17-96.17-18.84-129.79
					c55.71,15.59,99.09,76.99,106.94,88.33v46.6c0,5.33-0.16,9.64,5.17,9.64s5.69-4.98,5.69-10.31l0.8-45.93
					c8.13-11.74,50.8-71.75,106.35-87.27c7.34,33.64,10.89,78.97-18.73,129.32c-2.69,4.58-2.28,11.5,2.32,14.2c1.54,0.91-1.66,0,0,0
					c3.3,0,2.78-2.77,4.58-5.83C373.79,317.89,349.49,272.78,326.68,219.73z M222.15,345.56c-16.04-21.15-56.53-73.09-109.73-87.9
					c1.56-4.78,6.04-16.47,7.86-21.16c22.21,14.86,56.49,22.61,100.33,22.61c43.79,0,78.13-8.27,100.37-23.08
					c1.81,4.67,6.28,16.89,7.83,21.64C275.59,272.47,238.19,324.42,222.15,345.56z"/>
			</g>
		</g>
		<g>
			<g>
				
					<ellipse transform="matrix(0.1602 -0.9871 0.9871 0.1602 -12.3911 385.9145)" class="st0" cx="220.6" cy="200.24" rx="9.64" ry="9.64"/>
			</g>
		</g>
		<g>
			<g>
				<path class="st0" d="M111.7,135.57l-28.93-28.93c-3.77-3.77-9.87-3.77-13.64,0c-3.77,3.77-3.77,9.87,0,13.64l12.47,12.47H37.38
					c-5.33,0-9.64,4.31-9.64,9.64c0,5.33,4.31,9.64,9.64,9.64H81.6L69.13,164.5c-3.77,3.77-3.77,9.87,0,13.64
					c1.88,1.88,4.35,2.82,6.82,2.82c2.47,0,4.94-0.94,6.82-2.82l28.93-28.93C115.47,145.44,115.47,139.34,111.7,135.57z"/>
			</g>
		</g>
		<g>
			<g>
				<path class="st0" d="M403.83,132.74h-44.23l12.47-12.47c3.77-3.77,3.77-9.87,0-13.64c-3.77-3.77-9.87-3.77-13.64,0l-28.93,28.93
					c-3.77,3.77-3.77,9.87,0,13.64l28.93,28.93c1.88,1.88,4.35,2.82,6.82,2.82c2.47,0,4.94-0.94,6.82-2.82
					c3.77-3.77,3.77-9.87,0-13.64l-12.47-12.47h44.23c5.33,0,9.64-4.31,9.64-9.64S409.16,132.74,403.83,132.74z"/>
			</g>
		</g>
	</g>
	<circle class="st1" cx="220.61" cy="220.61" r="212"/>
</g>
</svg>
