<?xml version="1.0" encoding="utf-8"?>
<!-- Generator: Adobe Illustrator 23.0.1, SVG Export Plug-In . SVG Version: 6.00 Build 0)  -->
<svg version="1.1" id="Layer_1" xmlns="http://www.w3.org/2000/svg" xmlns:xlink="http://www.w3.org/1999/xlink" x="0px" y="0px"
	 viewBox="0 0 321.55 321.55" style="enable-background:new 0 0 321.55 321.55;" xml:space="preserve">
<style type="text/css">
	.st0{fill:#010101;}
	.st1{fill:none;stroke:#010101;stroke-width:5;stroke-miterlimit:10;}
</style>
<g>
	<g>
		<g>
			<path class="st0" d="M235.25,170.19l-52.21-1.06l-10.23-34.57c-0.94-2.82-2.63-8.81-5.54-8.4c-2.98,0.07-3.88,5.54-4.69,8.4
				l-20.81,76.91l-24.34-106.89c-0.65-2.9-0.69-5.24-3.65-5.48c-2.95-0.2-3.71,4.48-4.81,7.25L84.26,166.8l-51.51,1.97
				c-3.74,0-7.58,1.05-7.58,4.79c0,3.74,4.19,3.5,7.94,3.5h52.21c2.76,0,4.62-1.13,5.64-3.7l20.81-50.8l24.69,105.83
				c0.67,3.03,0.55,6.04,3.65,6.14c0.07,0,0.13,0,0.2,0c3.02,0,4.85-5.34,5.68-8.25l21.87-77.26l6.66,26.69
				c0.93,2.76,5.25,1.35,8.16,1.35l51.51,0c3.74,0,7.73,0.25,7.73-3.5C241.92,169.83,239,170.19,235.25,170.19z"/>
		</g>
	</g>
	<g>
		<g>
			<path class="st0" d="M272.3,75.67c-15.87-15.87-36.68-23.81-57.47-23.81c-19.46,0-38.77,7.23-54.19,21.12
				c-15.43-13.89-34.73-21.12-54.19-21.12c-20.8,0-41.6,7.93-57.47,23.81c-21.05,21.05-27.83,50.7-20.96,77.6h8.97
				c-7.22-23.27-0.75-56.4,17.64-74.8c12.79-12.79,33.06-19.76,51.15-19.76c16.51,0,33.89,9,46.21,19.76l8.78,6.7l8.39-7.17
				c12.33-10.75,30.18-19.29,46.68-19.29c18.09,0,39.77,10.14,52.56,22.93c26.41,26.41,24.29,76.25-2.12,102.66L160.77,288.37
				l-93.8-91.72l-14.71-2.75l108.38,108.38L272.3,190.62C304.04,158.87,304.04,107.41,272.3,75.67z"/>
		</g>
	</g>
	<circle class="st1" cx="160.77" cy="160.77" r="150"/>
</g>
</svg>
